<?xml version="1.0" standalone="no"?>
<!DOCTYPE svg PUBLIC "-//W3C//DTD SVG 20010904//EN"
 "http://www.w3.org/TR/2001/REC-SVG-20010904/DTD/svg10.dtd">
<svg version="1.0" xmlns="http://www.w3.org/2000/svg"
 width="700.000000pt" height="700.000000pt" viewBox="0 0 700.000000 700.000000"
 preserveAspectRatio="xMidYMid meet">
<metadata>
Created by potrace 1.11, written by Peter Selinger 2001-2013
</metadata>
<g transform="translate(0.000000,700.000000) scale(0.100000,-0.100000)"
fill="#000000" stroke="none">
<path d="M1625 6987 c-80 -28 -150 -97 -176 -175 -8 -23 -13 -98 -13 -194 -1
-87 -3 -159 -6 -159 -3 -1 -79 -3 -170 -4 -91 -2 -195 -4 -233 -5 -214 -9
-451 -101 -625 -243 -113 -92 -240 -256 -300 -390 -30 -64 -72 -191 -89 -267
-4 -19 -8 -1054 -10 -2300 -2 -2001 0 -2274 13 -2345 54 -279 203 -520 429
-690 106 -80 301 -169 416 -190 13 -3 47 -9 74 -14 30 -6 496 -10 1172 -10
1094 -1 1124 -1 1175 19 61 23 120 77 149 137 65 135 4 302 -133 364 l-53 24
-1108 2 c-816 1 -1122 5 -1160 13 -207 48 -375 219 -418 425 -9 46 -12 551
-12 2235 0 1196 3 2196 7 2222 14 101 64 204 141 286 68 74 133 116 227 149
68 24 88 25 291 28 119 2 217 0 218 -4 1 -3 2 -78 3 -166 3 -177 13 -217 74
-286 51 -58 114 -84 202 -83 45 1 89 8 111 17 69 31 137 114 155 192 3 11 5
90 6 175 l0 156 614 0 614 0 0 -35 c2 -258 6 -307 29 -353 105 -219 424 -202
503 26 14 40 17 84 18 207 l0 155 622 0 621 -1 2 -170 c2 -162 3 -172 28 -221
101 -199 387 -203 486 -7 28 57 29 65 30 244 l1 157 218 -3 c119 -1 238 -7
264 -14 193 -46 345 -196 403 -396 16 -55 17 -136 19 -910 l1 -850 24 -48 c30
-61 72 -102 136 -133 146 -70 332 18 375 177 7 27 10 322 8 917 l-3 877 -27
97 c-99 363 -344 636 -686 765 -140 52 -245 66 -519 66 l-211 1 -4 175 c-3
158 -5 180 -25 216 -28 53 -77 102 -127 127 -41 21 -152 29 -205 15 -75 -20
-158 -108 -177 -187 -4 -19 -8 -105 -9 -190 l-1 -155 -622 0 -622 -1 -1 151
c-1 173 -3 195 -29 244 -60 117 -206 177 -329 136 -63 -21 -132 -82 -162 -142
-23 -48 -25 -82 -29 -369 l0 -20 -612 0 -613 1 -1 134 c-2 174 -9 219 -40 275
-27 48 -63 81 -124 111 -41 21 -151 28 -195 12z"/>
<path d="M1632 4390 c-235 -77 -264 -371 -50 -502 25 -16 45 -21 128 -32 41
-5 122 24 167 61 121 98 137 274 38 391 -67 78 -188 113 -283 82z"/>
<path d="M4108 4405 c-2 -1 -26 -5 -54 -8 -159 -16 -267 -172 -230 -331 13
-54 49 -113 91 -148 108 -92 286 -76 379 34 125 146 62 374 -121 436 -34 11
-63 19 -65 17z"/>
<path d="M2809 4387 c-81 -31 -140 -90 -167 -170 -35 -106 -10 -206 71 -284
173 -166 459 -40 456 201 -1 95 -53 184 -135 232 -56 33 -166 43 -225 21z"/>
<path d="M5165 4376 c-57 -26 -117 -87 -141 -143 -24 -58 -22 -160 5 -215 25
-53 43 -74 91 -110 178 -130 430 3 430 227 0 67 -46 163 -98 203 -85 66 -197
81 -287 38z"/>
<path d="M5123 3294 c-745 -108 -1313 -679 -1417 -1424 -13 -98 -16 -395 -3
-416 2 -5 8 -33 11 -63 4 -29 8 -56 10 -60 2 -3 7 -22 10 -41 33 -202 169
-480 333 -682 60 -74 228 -239 271 -265 15 -9 36 -24 47 -34 31 -27 173 -111
240 -143 103 -49 199 -84 296 -109 171 -45 226 -51 429 -51 171 1 211 4 322
27 654 137 1154 635 1293 1288 39 182 42 444 6 639 -69 381 -286 739 -601 991
-192 154 -468 282 -694 324 -45 8 -94 17 -111 20 -64 13 -352 12 -442 -1z
m412 -548 c145 -32 268 -77 370 -137 38 -22 72 -44 75 -47 3 -4 18 -16 33 -25
52 -33 158 -141 218 -221 106 -139 189 -342 213 -516 7 -53 9 -266 3 -277 -3
-5 -8 -28 -11 -53 -11 -80 -46 -193 -90 -285 -109 -230 -266 -390 -516 -526
-71 -39 -255 -95 -342 -104 -387 -42 -756 105 -996 397 -118 143 -203 324
-238 508 -13 73 -12 314 2 389 44 229 146 423 309 587 172 172 378 275 635
317 37 6 300 0 335 -7z"/>
<path d="M5271 2479 c-85 -26 -164 -105 -189 -189 -3 -8 -6 -163 -7 -345 -4
-388 -2 -399 81 -482 74 -75 104 -81 377 -83 124 0 245 4 273 10 117 25 209
143 207 264 -1 76 -38 161 -86 202 -66 56 -125 72 -269 74 l-38 0 0 158 c0
189 -12 243 -70 306 -21 23 -59 52 -85 65 -53 26 -143 36 -194 20z"/>
<path d="M1595 3186 c-165 -77 -210 -290 -89 -425 169 -188 474 -72 474 180 0
196 -206 328 -385 245z"/>
<path d="M2790 3189 c-178 -80 -219 -314 -78 -450 75 -71 211 -90 306 -43 203
101 201 392 -3 488 -69 33 -159 35 -225 5z"/>
<path d="M1663 2019 c-172 -31 -272 -216 -203 -377 88 -205 373 -220 486 -26
31 53 42 147 25 211 -34 124 -179 214 -308 192z"/>
<path d="M2888 2025 c-2 -2 -19 -5 -38 -8 -54 -7 -113 -41 -157 -91 -132 -150
-51 -398 142 -440 94 -20 197 9 258 71 121 127 93 340 -56 427 -35 21 -140 49
-149 41z"/>
</g>
</svg>
